<?xml version="1.0" encoding="utf-8"?>
<!-- Generator: Adobe Illustrator 23.0.5, SVG Export Plug-In . SVG Version: 6.00 Build 0)  -->
<svg version="1.1" id="Layer_1" xmlns="http://www.w3.org/2000/svg" xmlns:xlink="http://www.w3.org/1999/xlink" x="0px" y="0px"
	 viewBox="0 0 1064 2147" style="enable-background:new 0 0 1064 2147;" xml:space="preserve">
<style type="text/css">
	.st0{fill:#333343;}
	.st1{fill:#FFFFFF;}
	.st2{fill:#3E3D51;}
	.st3{fill:#8282A8;}
	.st4{fill:#ECE1EF;}
	.st5{fill:#B1B1DE;}
	.st6{fill:#D6D6ED;}
	.st7{fill:#F47458;}
	.st8{fill:#F48C7F;}
	.st9{fill:#FBF3FF;}
	.st10{fill:#FF7685;}
	.st11{fill:#F7A491;}
	.st12{fill:#0F172A;}
</style>
<g>
	<g id="Слой_2">
		<g>
			<g>
				<path class="st0" d="M1047.4,339.5h-2V127.4C1045.4,57,988.3,0,918,0H146C75.7,0,18.6,57,18.6,127.4v212.1h-2
					c-9.2,0-16.6,7.4-16.6,16.6v146.7c0,9.2,7.4,16.6,16.6,16.6h2v35h-2c-9.2,0-16.6,7.4-16.6,16.6v146.7c0,9.2,7.4,16.6,16.6,16.6
					h2v1285.1c0,70.3,57,127.4,127.4,127.4h772c70.3,0,127.4-57,127.4-127.4V609.5h2c9.2,0,16.6-7.4,16.6-16.6V356.1
					C1064,346.9,1056.6,339.5,1047.4,339.5z"/>
				<path class="st1" d="M904.8,2115.5H159.2c-57.1,0-103.4-46.3-103.4-103.4V134.9c0-57.1,46.3-103.4,103.4-103.4h745.7
					c57.1,0,103.4,46.3,103.4,103.4v1877.1C1008.3,2069.2,962,2115.5,904.8,2115.5z"/>
			</g>
			<g>
				<g>
					<g>
						<path class="st2" d="M221.3,166.8h-61c-1.4,0-2.5-1.1-2.5-2.5s1.1-2.5,2.5-2.5h61c1.4,0,2.5,1.1,2.5,2.5
							S222.7,166.8,221.3,166.8z"/>
						<path class="st2" d="M221.3,189.3h-61c-1.4,0-2.5-1.1-2.5-2.5s1.1-2.5,2.5-2.5h61c1.4,0,2.5,1.1,2.5,2.5
							S222.7,189.3,221.3,189.3z"/>
						<path class="st2" d="M221.3,211.8h-61c-1.4,0-2.5-1.1-2.5-2.5s1.1-2.5,2.5-2.5h61c1.4,0,2.5,1.1,2.5,2.5
							S222.7,211.8,221.3,211.8z"/>
					</g>
				</g>
				<g>
					<path class="st3" d="M470.8,1927c-8.4,0-15.3,6.9-15.3,15.3c0,8.4,6.9,15.3,15.3,15.3s15.3-6.9,15.3-15.3
						C486.1,1933.9,479.2,1927,470.8,1927z"/>
					<path class="st3" d="M532,1957.8c-8.4,0-15.3-6.9-15.3-15.3s6.9-15.3,15.3-15.3s15.3,6.9,15.3,15.3S540.4,1957.8,532,1957.8z
						 M532,1932.2c-5.7,0-10.3,4.6-10.3,10.3s4.6,10.3,10.3,10.3s10.3-4.6,10.3-10.3S537.7,1932.2,532,1932.2z"/>
					<path class="st3" d="M593.2,1958c-8.4,0-15.3-6.9-15.3-15.3c0-8.4,6.9-15.3,15.3-15.3c8.4,0,15.3,6.9,15.3,15.3
						C608.5,1951.1,601.6,1958,593.2,1958z M593.2,1932.4c-5.7,0-10.3,4.6-10.3,10.3s4.6,10.3,10.3,10.3s10.3-4.6,10.3-10.3
						S598.9,1932.4,593.2,1932.4z"/>
				</g>
			</g>
		</g>
	</g>
	<g>
		<g>
			<path class="st4" d="M870.4,1202.3c79.8-51.2,85.1-299.5-69.4-357.6c-154.4-58.1-125.8-204.8-255.7-314.4
				C426.9,430.3,230.9,515,165.7,774.9c-46.5,185.3,7.8,417.8,44.8,427.4C570.8,1202.3,870.4,1202.3,870.4,1202.3z"/>
			<g>
				<path class="st3" d="M682.4,921c0.8-31.8,22.7-41.9,22.7-41.9c7.7-81.6,49-86.7,108.7-81.6c92.3,7.9,58.7,97.6,26.4,122.6
					c-25.4,19.6-109.2,10.3-129.7-18.9C698.7,903.9,689,908.7,682.4,921z"/>
				<g>
					<path class="st5" d="M385.2,661.2l-5.2-8.4c-3.9,2.2-8.1,3.8-11.8,4.7c-3.1,0.8-6.2-1-7.2-4l-0.1-0.4c-1.1-3.3,0.9-6.9,4.4-7.7
						c3.5-0.8,7.2-2.2,10.6-4.3c5-3.1,7.3-7.2,5.1-10.8c-2.1-3.4-6.2-3.7-14.2-1.9c-11.5,2.7-20.7,2.3-26-6.3
						c-4.8-7.8-3.2-17.3,5.2-25.1l-5.2-8.4l8.7-5.4l4.8,7.8c3.3-1.9,6.2-3.1,8.8-3.9c3.2-1,6.5,0.8,7.5,4l0,0c1,3.2-0.8,6.7-4.1,7.6
						c-2.5,0.7-5.3,1.8-8.5,3.7c-5.8,3.6-6.1,7.2-4.5,9.7c1.8,2.9,6.1,2.9,15.4,1c12.8-2.8,20.1-0.6,25.1,7.4
						c4.9,7.9,3.5,18.1-5.6,26.2l5.6,9L385.2,661.2z"/>
				</g>
				<g>
					<g>
						<g>
							<path class="st6" d="M601.5,1174.2c21.7-29.2,39.2-29.5,39.2-29.5s7.9-51.3,1.6-73.2c-6.3-21.8-34.9-2.7-34.9-2.7
								s37.9-74.2,22.3-82.6c-28.9-15.5-74.5,63.2-74.5,63.2s10.7-34.7-9.8-34.5c-30.8,0.2-33.5,79.6-33.5,79.6s-6.1-15.7-25.1-6.7
								c-20.5,9.7-26.1,67.8-27.2,112.8h108.1C583.2,1191.2,595.8,1182,601.5,1174.2z"/>
						</g>
						<path class="st3" d="M559,1043.2c0,0,1.3-39.5-19.2-39.4c-30.8,0.2-27.9,90.8-27.9,90.8s-12.9-25.6-31.9-16.7
							c-20.9,9.8-23.4,74.1-22.6,122.8h35.9l136.4-214.4C600.8,970.8,559,1043.2,559,1043.2z"/>
					</g>
				</g>
				<g>
					<g>
						<g>
							<path class="st3" d="M727,1198.1c0,0,98.5,11.3,122.3,3c23.9-8.4,8.1-21.7,8.1-21.7s50.4-6.4,55.3-21.5
								c4.9-15-19-15.1-19-15.1s50.6-27.9,45-38.8c-10.6-20.2-67.4,7.4-67.4,7.4s19.6-15.8,7.8-23.7c-17.8-11.9-50.3,32.8-50.3,32.8
								s2.6-11.4-11.8-13.6C791.1,1102.9,727,1198.1,727,1198.1z"/>
						</g>
						<path class="st5" d="M816.9,1098.5c14.4,2.2,11.9,22,11.9,22s33.6-53.2,51.4-41.4c11.8,7.9-4.3,30.1-4.3,30.1
							s52.2-25.4,62.8-5.2l-202.2,87.8C743.9,1180.7,792.8,1094.7,816.9,1098.5z"/>
					</g>
					<g>
						<g>
							<path class="st3" d="M739.7,1205c0,0,84.1-55.6,96.1-81.1c12-25.6-11-23.4-11-23.4s34.4-45.3,26.2-60.9
								c-8.2-15.6-26.9,3.3-26.9,3.3s17.4-62.3,4.3-66.2c-24.4-7.4-48.3,71.5-48.3,71.5s-9.1-43.6-24.7-40.4
								c-23.4,4.9-0.1,69.4-0.1,69.4s-6.9-21-20-11.3C712,1083.3,739.7,1205,739.7,1205z"/>
						</g>
						<path class="st5" d="M712.6,1066.9c14.8-7,17.7-21.7,17.7-21.7s0.1-36.5,23.5-41.4c15.5-3.2,26.4,26.1,26.4,26.1
							s23.8-60.6,48.2-53.3l-88.7,227.6C736.7,1189.5,695,1075.2,712.6,1066.9z"/>
					</g>
				</g>
				<g>
					<path class="st6" d="M698.8,1199.8H518.1c-5.8,0-10.4-4.7-10.4-10.4l0,0c0-5.8,4.7-10.4,10.4-10.4h180.7
						c5.8,0,10.4,4.7,10.4,10.4l0,0C709.2,1195.1,704.5,1199.8,698.8,1199.8z"/>
					<path class="st7" d="M730.4,1179.5H549.7c-5.8,0-10.4-4.7-10.4-10.4l0,0c0-5.8,4.7-10.4,10.4-10.4h180.7
						c5.8,0,10.4,4.7,10.4,10.4l0,0C740.8,1174.8,736.1,1179.5,730.4,1179.5z"/>
					<path class="st8" d="M705.1,1160.3H524.4c-5.8,0-10.4-4.7-10.4-10.4l0,0c0-5.8,4.7-10.4,10.4-10.4h180.7
						c5.8,0,10.4,4.7,10.4,10.4l0,0C715.5,1155.7,710.9,1160.3,705.1,1160.3z"/>
					<path class="st7" d="M684,1139.6H503.3c-5.8,0-10.4-4.7-10.4-10.4l0,0c0-5.8,4.7-10.4,10.4-10.4H684c5.8,0,10.4,4.7,10.4,10.4
						l0,0C694.5,1134.9,689.8,1139.6,684,1139.6z"/>
					<g>
						<ellipse class="st9" cx="721.7" cy="1111.3" rx="90.4" ry="90.4"/>
						<path class="st5" d="M797.5,1111.3c0,41.9-33.9,75.8-75.8,75.8s-75.8-33.9-75.8-75.8c0-41.9,33.9-75.8,75.8-75.8
							S797.5,1069.4,797.5,1111.3z"/>
						<g>
							<path class="st9" d="M698.2,1160l4.3-11.9c-5.3-2.2-10.2-5.1-14-8.1c-3.2-2.5-3.9-7.1-1.6-10.4l0.3-0.4
								c2.5-3.7,7.7-4.5,11.2-1.7c3.6,2.9,7.8,5.5,12.7,7.3c7.1,2.6,13,1.6,14.8-3.4c1.7-4.8-1.2-9.2-9.3-15.7
								c-11.8-9.4-18.6-18.9-14.2-31.1c4-11,14.9-16.8,29.3-14.6l4.3-11.9l12.3,4.4l-4,11c4.5,1.9,8,3.8,10.8,5.8
								c3.5,2.4,4.3,7.2,1.9,10.6l0,0c-2.5,3.6-7.4,4.5-10.9,1.9c-2.6-1.9-6-3.9-10.4-5.6c-8.1-3-12-0.4-13.3,3.1
								c-1.5,4.1,1.9,8.4,11.1,16.2c13,10.7,16.5,19.7,12.4,31c-4,11.1-15.4,17.8-30.7,15.1l-4.6,12.8L698.2,1160z"/>
						</g>
					</g>
				</g>
				<g>
					<g>
						<g>
							<path class="st2" d="M395.8,1196.1c0,0-140.4-69.2-164.5-105.3s11.3-38.2,11.3-38.2S180,991.7,188.8,966s41.7-1.1,41.7-1.1
								s-40.7-90.7-21.7-99.7c35.4-16.8,85,79.7,85,79.7s-10.7-41.9,13.7-40.6c36.7,2.1,35.2,96.9,35.2,96.9s4.2-36.4,26.3-24.5
								C408.8,997.9,395.8,1196.1,395.8,1196.1z"/>
						</g>
						<path class="st3" d="M377,962c-17.3-9.6-34.5,18.5-34.5,18.5s1.7-74.1-35-76.1c-24.4-1.4-13.7,40.6-13.7,40.6
							s-49.6-96.5-85-79.7L396,1194.6C397.3,1171.6,411.3,981,377,962z"/>
					</g>
					<g>
						<g>
							<path class="st2" d="M392.2,1197c0,0-114.8,14.3-144.6,1.6c-29.7-12.7-8.4-28.4-8.4-28.4s-63.8-12.5-68.8-32.1
								c-4.9-19.6,25.6-17.7,25.6-17.7s-62.2-40-54.1-53.3c15.2-24.8,85.4,15.2,85.4,15.2s-23.7-21.8-7.9-30.9
								c23.8-13.6,61.3,46.1,61.3,46.1s-2.3-14.7,16.3-16.4C330.4,1078.1,392.2,1197,392.2,1197z"/>
						</g>
						<path class="st3" d="M297.8,1070.3c-18.6,1.6-17,27.1-17,27.1s-38.3-70.8-62-57.2c-15.8,9.1,2.9,38.8,2.9,38.8
							s-64.4-36.9-79.7-12l250.6,129.4C384,1181.4,329,1067.6,297.8,1070.3z"/>
					</g>
				</g>
				<g>
					<path class="st0" d="M153.3,1202.9L153.3,1202.9c0,1.8,1.4,3.2,3.2,3.2h804.8c1.8,0,3.2-1.4,3.2-3.2l0,0c0-1.8-1.4-3.2-3.2-3.2
						H156.5C154.8,1199.6,153.3,1201.1,153.3,1202.9z"/>
				</g>
				<polygon class="st10" points="761.5,703.6 765.7,713.8 750.1,722.3 754.4,737.9 743.7,746.3 747.9,751.6 762.2,740.5 
					758.1,725.7 774.4,716.8 768.1,701.5 				"/>
				<g>
					<path class="st10" d="M537.1,870.7l1.7-9.1c-4.1-1-8-2.5-11.1-4.2c-2.6-1.4-3.7-4.6-2.4-7.3l0.2-0.3c1.4-3,5-4.1,7.8-2.5
						c2.9,1.6,6.3,3,10,3.7c5.5,1,9.6-0.4,10.3-4.2c0.7-3.6-2-6.5-8.6-10.2c-9.6-5.4-15.7-11.5-13.9-20.7c1.6-8.4,8.7-13.9,19.4-14
						l1.7-9.1l9.4,1.8l-1.6,8.4c3.4,0.8,6.2,1.8,8.5,2.9c2.8,1.3,4,4.7,2.7,7.4l0,0c-1.3,2.9-4.8,4.1-7.6,2.6
						c-2.1-1.1-4.8-2.1-8.2-2.8c-6.2-1.2-8.7,1.1-9.2,3.8c-0.6,3.2,2.4,5.8,9.9,10.4c10.6,6.2,14.2,12.3,12.6,20.9
						c-1.6,8.5-9,14.7-20.3,14.5l-1.8,9.8L537.1,870.7z"/>
				</g>
				<path class="st6" d="M546,1199.6H333.8c-8.5,0-15.3-6.9-15.3-15.3l0,0c0-8.5,6.9-15.3,15.3-15.3H546c8.5,0,15.3,6.9,15.3,15.3
					l0,0C561.3,1192.8,554.5,1199.6,546,1199.6z"/>
				<path class="st5" d="M577.9,1169.3H378.1c-8.5,0-15.3-6.9-15.3-15.3l0,0c0-8.5,6.9-15.3,15.3-15.3h199.8
					c8.5,0,15.3,6.9,15.3,15.3l0,0C593.2,1162.5,586.4,1169.3,577.9,1169.3z"/>
				<path class="st9" d="M549.4,1138.7H358.3c-8.3,0-15-6.7-15-15v-0.7c0-8.3,6.7-15,15-15h191.1c8.3,0,15,6.7,15,15v0.7
					C564.4,1132,557.7,1138.7,549.4,1138.7z"/>
				<path class="st5" d="M549.2,1108.2h-192c-8.1,0-14.7-6.6-14.7-14.7v-1.2c0-8.1,6.6-14.7,14.7-14.7h192c8.1,0,14.7,6.6,14.7,14.7
					v1.2C564,1101.6,557.4,1108.2,549.2,1108.2z"/>
				<path class="st6" d="M555.6,1079.3H361.8c-8.5,0-15.3-6.9-15.3-15.3l0,0c0-8.5,6.9-15.3,15.3-15.3h193.8
					c8.5,0,15.3,6.9,15.3,15.3l0,0C570.9,1072.5,564,1079.3,555.6,1079.3z"/>
				<path class="st5" d="M547.2,1049.1H353.4c-8.5,0-15.3-6.9-15.3-15.3l0,0c0-8.5,6.9-15.3,15.3-15.3h193.8
					c8.5,0,15.3,6.9,15.3,15.3l0,0C562.5,1042.2,555.7,1049.1,547.2,1049.1z"/>
				<path class="st5" d="M556.9,989.9H371.3c-8.3,0-15-6.7-15-15v-0.6c0-8.3,6.7-15,15-15h185.6c8.3,0,15,6.7,15,15v0.6
					C571.9,983.2,565.2,989.9,556.9,989.9z"/>
				<path class="st9" d="M573.6,1019.4H395.2c-8.1,0-14.7-6.6-14.7-14.7v-1.2c0-8.1,6.6-14.7,14.7-14.7h178.3
					c8.1,0,14.7,6.6,14.7,14.7v1.2C588.3,1012.8,581.7,1019.4,573.6,1019.4z"/>
				
					<ellipse transform="matrix(0.284 -0.9588 0.9588 0.284 -849.0069 1091.2985)" class="st9" cx="306.2" cy="1114.1" rx="89.9" ry="89.9"/>
				<path class="st5" d="M357.4,1058.7c30.6,28.2,32.6,76,4.3,106.6c-28.2,30.6-76,32.6-106.6,4.3c-30.6-28.2-32.6-76-4.3-106.6
					S326.8,1030.4,357.4,1058.7z"/>
				<path class="st9" d="M355.7,1137.7c1.7,2.3,1.6,5.5-0.3,7.6c-3.7,4.2-9.8,9.3-17.5,13c-11.2,5.5-24.1,7.2-36.3,3
					c-7.6-2.6-14.9-7.9-20.3-15.1l-6.6,3.3c-2.3,1.1-5,0.2-6.1-2.1l-0.1-0.2c-1.1-2.3-0.2-5,2.1-6.1l5.4-2.7
					c-1.1-1.8-1.8-2.9-2.3-3.9c-0.8-1.7-1.7-3.8-2.4-6.2l-5.6,2.8c-2.3,1.1-5,0.2-6.1-2.1l0,0c-1.1-2.3-0.2-5,2.1-6.1l6.8-3.3
					c-2-8.7-1.7-17.5,0.9-25.2c4.4-12.9,14.1-22.8,25.9-28.5c6.8-3.4,12.6-4.7,17.3-5.2c3.3-0.4,6.3,1.9,6.7,5.2l0,0.1
					c0.5,3.4-1.9,6.5-5.3,7c-3.9,0.5-8.3,1.8-13.5,4.3c-7.5,3.7-13.8,9.7-16.9,18.4c-1.7,5.1-2.2,11-0.5,16.7l38.3-18.8
					c2.3-1.1,5-0.2,6.1,2.1l0,0c1.1,2.3,0.2,5-2.1,6.1l-40,19.6c0.7,2,1.5,3.9,2.1,5.1c0.8,1.5,1.5,3.1,2.7,5l40-19.7
					c2.3-1.1,5.1-0.2,6.2,2.1l0,0c1.1,2.3,0.2,5.1-2.1,6.2l-38.3,18.8c3.6,4.3,8.1,7.4,12.6,9c9,2.9,17,2,25.5-2.2
					c5.2-2.5,9.4-5.8,12.5-8.8C349.4,1134.5,353.6,1134.9,355.7,1137.7L355.7,1137.7z"/>
				<path class="st5" d="M378.2,878.2c1,1.6,0.7,3.8-0.7,5.1c-2.8,2.6-7.2,5.6-12.6,7.6c-7.9,3-16.6,3.2-24.5-0.3
					c-4.9-2.2-9.4-6.3-12.6-11.5l-4.7,1.8c-1.6,0.6-3.3-0.2-3.9-1.8l0-0.1c-0.6-1.6,0.2-3.3,1.8-3.9l3.8-1.4c-0.6-1.3-1-2.1-1.3-2.8
					c-0.4-1.2-0.9-2.7-1.2-4.3l-3.9,1.5c-1.6,0.6-3.4-0.2-3.9-1.8l0,0c-0.6-1.6,0.2-3.3,1.8-3.9l4.8-1.8c-0.7-6,0-11.9,2.3-16.8
					c3.8-8.4,11-14.3,19.2-17.4c4.8-1.8,8.8-2.3,12-2.4c2.2,0,4.1,1.7,4.2,3.9l0,0.1c0.1,2.3-1.7,4.2-4,4.3c-2.6,0.1-5.7,0.6-9.3,2
					c-5.3,2-9.9,5.6-12.5,11.3c-1.5,3.3-2.2,7.2-1.4,11.2l26.9-10.1c1.6-0.6,3.4,0.2,3.9,1.8l0,0c0.6,1.6-0.2,3.3-1.8,3.9
					l-28.1,10.5c0.4,1.4,0.7,2.7,1.1,3.6c0.4,1.1,0.8,2.2,1.5,3.5l28.1-10.6c1.6-0.6,3.4,0.2,4,1.8l0,0c0.6,1.6-0.2,3.4-1.8,4
					l-27,10.1c2.1,3.2,4.9,5.5,7.9,6.9c5.9,2.6,11.3,2.4,17.3,0.2c3.6-1.4,6.7-3.2,9-5.1C374.1,875.6,376.9,876.1,378.2,878.2
					L378.2,878.2z"/>
				<path class="st5" d="M629.6,779.8l11-7.7l12.6,4.7c1.4,0.5,2.9-0.8,2.4-2.3l-3.9-12.8l8.3-10.5c0.9-1.2,0.1-3-1.4-3l-13.4-0.2
					l-7.4-11.2c-0.8-1.3-2.8-1-3.3,0.4l-4.3,12.7l-12.9,3.6c-1.5,0.4-1.8,2.3-0.6,3.3l10.7,8.1l-0.6,13.4
					C626.7,779.7,628.4,780.7,629.6,779.8z"/>
				<polygon class="st9" points="348,752.3 338.4,748.1 343.5,731.8 330.2,724 332,711.2 325.5,710.3 323.1,727.3 335.7,734.8 
					330.4,751.7 344.9,758 				"/>
				<g>
					<path class="st6" d="M425.5,735.6l11.2,3.7c0,0,17.7-5.7,19.4-9.3c1.7-3.6,2.2-12.4,4.8-12.6c2.5-0.2,7.4,0.6,8.5,6.6
						c0.8,4.3-5.5,16.9-4.5,18.3c0.6,0.8,7,3.1,11.7,4.7c3.1,1.1,5.3,3.8,5.8,7l0,0c0.3,2.2-0.9,4.4-3,5.1l-3.2,1.2l1,3.3
						c0.8,2.5-0.6,5.1-3,5.9l-2.5,0.8l0.8,2c1,2.6-0.4,5.6-3.1,6.3l-2.2,0.6l0.1,0.6c0.4,2.4-1.1,4.7-3.5,5.4l-2.2,0.6l-29.7-9.8
						c-2.8-0.9-5.4-2.4-7.5-4.4l-9.9-5.2c-1.1-0.6-1.5-1.8-1.1-3l9.2-26.4C422.9,735.9,424.2,735.2,425.5,735.6z"/>
				</g>
				<path class="st10" d="M263.5,810.4l-8-15.2l8-15.2c0.9-1.7-0.6-3.8-2.5-3.4l-16.9,2.9l-12-12.3c-1.4-1.4-3.8-0.6-4,1.3l-2.5,17
					l-15.4,7.6c-1.8,0.9-1.8,3.4,0,4.2l15.4,7.6l2.5,17c0.3,1.9,2.7,2.7,4,1.3l12-12.3l17,2.9C262.9,814.1,264.4,812.1,263.5,810.4z
					"/>
				<g>
					<path class="st9" d="M834.7,849.1c6.8,25.2-8.1,51.2-33.3,58c-25.2,6.8-51.2-8.1-58-33.3c-6.8-25.2,8.1-51.2,33.3-58
						C802,809,827.9,823.9,834.7,849.1z"/>
					<path class="st5" d="M827.4,851.1c5.7,21.2-6.8,42.9-28,48.6c-21.2,5.7-42.9-6.8-48.6-28c-5.7-21.2,6.8-42.9,28-48.6
						C799.9,817.4,821.7,829.9,827.4,851.1z"/>
					<g>
						<path class="st9" d="M783.8,889.2l0.6-6.6c-3-0.4-5.8-1.2-8.2-2.2c-2-0.8-2.9-3-2.2-5l0.1-0.2c0.8-2.2,3.3-3.3,5.4-2.4
							c2.2,1,4.7,1.7,7.4,1.9c4,0.3,6.8-1,7-3.7c0.2-2.6-1.9-4.5-6.9-6.7c-7.2-3.1-12-7-11.4-13.8c0.5-6.1,5.2-10.5,12.8-11.4
							l0.6-6.6l6.8,0.6l-0.5,6.1c2.5,0.3,4.6,0.8,6.3,1.5c2.1,0.7,3.1,3,2.4,5.1l0,0c-0.8,2.2-3.1,3.3-5.3,2.4
							c-1.6-0.6-3.6-1.2-6-1.4c-4.5-0.4-6.1,1.4-6.3,3.4c-0.2,2.3,2.1,4,7.8,6.7c8,3.6,11,7.7,10.5,14c-0.5,6.2-5.3,11.1-13.5,11.8
							l-0.6,7.1L783.8,889.2z"/>
					</g>
				</g>
				<g>
					<path class="st10" d="M491,667.8l1.7-6c9.2-1.7,17.2-8,19.8-17c0.8-2.9,1.4-5.3,1.8-8.6l-12.4-3.6l2.2-7.6l11.2,3.2
						c0.4-3.8,1.1-8.7,2.4-13.4c4.1-14.2,16.5-20.6,29.9-16.7c3.8,1.1,6.7,2.5,8.9,4c2,1.3,2.5,4,1.2,6l0,0c-1.3,2-4,2.6-6,1.3
						c-1.7-1-3.9-2-6.6-2.8c-9.4-2.7-15.1,2.6-17.6,11.2c-1.5,5.2-1.9,9.2-2.3,13.3l17.3,5l-2.2,7.6l-16.3-4.7
						c-1,4.7-2.1,9.3-4.4,13.3c-2.8,4.8-7,8.3-12.1,10.6l-0.1,0.2l31.6,9.2c2.3,0.7,3.7,3.1,3,5.5l-0.1,0.3c-0.7,2.3-3.1,3.7-5.5,3
						L491,667.8z"/>
				</g>
				<g>
					<path class="st0" d="M655.3,916.1c-2.1-12.5-4.2-25.1-16.3-34.7c-9.8-7.8-21.9-9.5-33.6-5.9c-33.3,10-12.7,29.1-56.7,50.3
						c-45.5,21.9-25.7,77.8-12.4,90.8c39.4,51.4,100.8,14.7,118.6-36.3C660.9,963.1,656.6,924.2,655.3,916.1z"/>
					<g>
						<path class="st11" d="M522,1095.9c-0.3,0.2,2.9,3.9,5.7,7.5c2.8,3.6,8.5,7.8,7.6,8.5c-0.7,0.5-4.5-1.7-7.6-4.4
							c0.6,1,0.7,1.6,0.1,1.5c-2.6-0.2-12.4-8.3-18.8-19.2c-6.4-10.9-39-81-27.3-85.4c4.3-1.6,40.8-11.3,50.3-13.8l4.6,32.7h-32.8
							c2.4,20.4,9.9,44.9,10.3,46.2c1.1,3.5,6.8,5.4,7.9,6.1c5.8,4,13.2,9.3,13,12.1s-5-1.7-8.9-3.1c-3.9-1.3,0.5,14.6,11.9,21.9
							c11.4,7.3-4.5,3.1-7.4-0.5C527.8,1102.6,522.5,1095.6,522,1095.9z"/>
						<path class="st11" d="M744.6,978.6c-0.5-0.6-0.9,0.2-1.2,1.6c-0.6-4.3-2.6-9.2-3.5-9.3c-1.1-0.2,1,6.9,0.3,11.4
							s-0.7,9.8-1.1,9.7c-0.6-0.2,0.4-6.2,0.9-10.8c0.6-4.6-7.7-21.6-4.7-8.3s-5.6,27.6-7.5,23.9c-1.8-3.7-2-10.4-4.2-8.6
							c-2.2,1.8,0.4,10.8,0.5,17.9c0,0.8,0.8,3,1.8,5.6c0.5,1.4,0.1,2.9-1,3.8l-31.4,24.2l-17.7-27.8l-27.3,16.1
							c0,0,23.1,40.3,44.7,37.3c8.6-1.2,38.4-33.6,47.7-50.2C750.4,998.5,746.7,981,744.6,978.6z"/>
						<path class="st3" d="M649.9,978.1c8.9,4.3,35.9,45.2,35.9,45.2l-25.8,25.2l-17-22.2C643.1,1026.3,638.9,972.8,649.9,978.1z"/>
						<path class="st3" d="M580.8,973.6c0,0-5.5,0.2-19.6,4.7c-15.3,4.9-44.1,12.1-44.1,12.1l15.4,34.2l51.4-6.1
							C583.9,1018.5,588.9,973.6,580.8,973.6z"/>
						<path class="st10" d="M652.3,1105.2c-13.8,7.3-63.6,6.1-63.6,6.1c-1.3-13.8-13.9-56.3-17-86c-3.9-20.6,4.9-20.9,9.1-51.7
							c0-0.2,21.4-1.7,21.4-1.7l22.2,0.5c0,0,19.3,1.6,25.5,5.6c0.4,0.3,2.9,35.1,1,59.8c-1.3,16.8-3.2,30.4-3.1,41.5
							C648,1095.5,652.3,1105.2,652.3,1105.2z"/>
						<path class="st2" d="M587.7,1104.7l-51.4,41.7c0,0,95.6,50,128.8,40.5l9-45.2l-21.8-36.4L587.7,1104.7z"/>
						<path class="st0" d="M578.5,1159.7c0,0-36.6-5.6-58.6,12.1c-22,17.7-36.2,53-25,58.6c11.2,5.6,43.9-0.9,69.8-10.3
							C590.6,1210.5,599.6,1164.9,578.5,1159.7z"/>
						<path class="st8" d="M496.7,1196.3c-3,6.6-0.4,12.9,4.7,16.4c6.3,4.3,92.8,16.9,122.3,21c23.1,3.1,57.7,10.5,67.2,12.2
							c9.5,1.7,42.9,2.3,43.5,1.3c1.8-2.8-2.2-8.2-9-9.9c-6.9-1.7-11.6-0.4-25-9.5c-13.4-9-18.5-1.7-22,0.4
							c-3.4,2.2-154.6-48.7-154.6-48.7S503.5,1181.6,496.7,1196.3z"/>
						<path class="st2" d="M580.7,1112.8c0,0-66.9,31.4-81,40.5c-26.5,17.1-11.4,66.2-7.6,74c0,0,7.7-43.8,31.8-47.7l4.3-20.7
							L580.7,1112.8z"/>
						<path class="st3" d="M647.9,1120.9c0,0-94.3-25.4-129.6,7.3c0,0-16.5,15.2-10.5,33.3c3.4,10.2,16.1,18,16.1,18
							s32.7-28,46.1-23.3c13.4,4.7,65.2,41.3,80.1,39.6C673.3,1193.3,700.4,1139.9,647.9,1120.9z"/>
						<path class="st11" d="M588.7,1163c-10-5-33.9-16.2-49.8-11.5c-15.9,4.7-22.2,17.6-15.1,28c4.2,6.1,143.4,47.8,149.9,51.7
							c6.5,3.9,33.2,9.5,41.3,9.5s23.3,3,24.6,0.9s-6-9.5-15.1-11.2c-9-1.7-21.5-13.8-26.7-18.1c-5.2-4.3-6.9-8.3-16.4-2.2
							C676.9,1213,611.9,1174.7,588.7,1163z"/>
						<path class="st10" d="M654.9,1019.4c0.7,21.8-20.9,27.8-45,27.8s-43.7-10.7-43.7-23.8c0-13.2,16-30.9,40.1-31.7
							C636.5,990.6,654.3,1002.7,654.9,1019.4z"/>
						<path class="st11" d="M607.8,936c0,0-0.5,3.6-1.3,8.6c-1.4,9.2-2.2,24.2-4,28.8c-1.6,4,1.2,32.9,12.8,32.9
							c13.3,0,12.2-25.6,12.6-30.5c0.4-4.9,1.7-21.7,2.6-32.9c0.5-6.1,0.8-10.5,0.8-10.5L607.8,936z"/>
						<path class="st7" d="M630.5,942.7c0.4-5.9,0.8-10.3,0.8-10.3l-23.5,3.6c0,0-0.6,3.4-1.2,8.3
							C616.1,949.8,624.7,948.1,630.5,942.7z"/>
						<path class="st11" d="M615.2,882.9c0,0-9.3,2.1-15,10.8c-5.7,8.7-9.6,34.4,9.2,46.4c18.8,12,33.5-5,33.7-21.5
							C643.4,902,639.8,880,615.2,882.9z"/>
						<path class="st11" d="M647.4,913.4c-1.6,4-4.8,6.5-7.1,5.5c-2.3-0.9-2.9-4.9-1.3-8.9c1.6-4,4.8-6.5,7.1-5.5
							C648.5,905.4,649,909.4,647.4,913.4z"/>
						<path class="st0" d="M618,882.3c0,0-11.8,26.5-22.2,28.8c-10.4,2.4-10.2,15.7-10.2,15.7s0.2-30.8,10-37.8
							C605.2,882,618,882.3,618,882.3z"/>
						<path class="st11" d="M600.1,921.4c1.3,3.9,0.1,7.8-2.6,8.7c-2.7,0.8-5.9-1.7-7.1-5.6c-1.3-3.9-0.1-7.8,2.6-8.7
							C595.7,915,598.9,917.5,600.1,921.4z"/>
						<path class="st11" d="M747.2,975.4c-0.5-0.6-3.4,3.4-3.7,4.7c-0.6-4.3-2.6-9.2-3.5-9.3c-1.1-0.2,1,6.9,0.3,11.4
							s-0.7,9.8-1.1,9.7c-0.6-0.2,0.4-6.2,0.9-10.8c0.6-4.6-7.7-21.6-4.7-8.3s-5.6,27.6-7.5,23.9c-1.8-3.7-2-10.4-4.2-8.6
							c-2.2,1.8,0.4,10.8,0.5,17.9c0,0.8,0.8,3,1.8,5.6c0.5,1.4,0.1,2.9-1,3.8l11.5,6.9c1.9-2.7,3.4-5.2,4.6-7.4
							C750.4,998.5,749.3,977.8,747.2,975.4z"/>
						<path class="st2" d="M745.6,955.1l-8.4,49.9l0.6,0.2c2.7,0.9,4.5-0.6,4.6-1.5l7.9-42.9C750.5,958.9,750.9,955.6,745.6,955.1z"
							/>
						<path class="st0" d="M732.9,956.5l-5.6,42c-0.1,1.1,0.4,2.2,1.5,2.7l8.6,4c1.5,0.7,3.3-0.3,3.6-1.9l7-45.1
							c0.2-1.5-0.8-2.8-2.3-2.9l-9.9-0.8C734.3,954.2,733,955.1,732.9,956.5z"/>
					</g>
				</g>
			</g>
		</g>
	</g>
</g>
<g>
	<path class="st12" d="M188.3,1419.3v-87.6h59.8v16.6h-39.4v18.4h31.7v16.5h-31.7v19.3h39.4v16.8H188.3z"/>
	<path class="st12" d="M253.4,1419.3l16.2-32.2l-16.2-32.6h21.3l10.1,21.7l10.2-21.7h19.8l-15.7,32.2l15.6,32.6h-21.4l-10.2-20.5
		l-9.5,20.5H253.4z"/>
	<path class="st12" d="M322.5,1446.1v-91.6H342l0.1,4c1.2-0.8,2.7-1.6,4.4-2.4c1.8-0.9,3.7-1.6,5.7-2.1c2.1-0.6,4.1-0.8,6.1-0.8
		c5.8,0,10.6,1.3,14.2,3.8c3.6,2.5,6.2,6.3,7.9,11.3c1.6,5,2.4,11.2,2.4,18.7c0,7.9-0.9,14.4-2.8,19.4c-1.8,5-4.8,8.7-9,11.1
		c-4.1,2.4-9.6,3.5-16.5,3.5c-2.1,0-4.3-0.2-6.6-0.6c-2.4-0.4-4.3-0.7-5.7-1v26.8H322.5z M351,1404.6c3.1,0,5.5-0.7,7.2-2.1
		c1.7-1.4,2.9-3.5,3.7-6.2c0.7-2.7,1.1-6,1.1-10c0-6.4-0.9-10.9-2.6-13.3c-1.7-2.4-4.3-3.6-7.6-3.6c-1.1,0-2.3,0.2-3.7,0.5
		c-1.3,0.3-2.6,0.7-3.8,1.1c-1.2,0.4-2.2,0.9-3.1,1.3v31.4c0.9,0.2,2.1,0.4,3.8,0.6C347.7,1404.5,349.4,1404.6,351,1404.6z"/>
	<path class="st12" d="M420.7,1420.9c-7.3,0-13.1-1.2-17.5-3.6c-4.3-2.4-7.4-6.1-9.3-11c-1.8-4.9-2.8-11.1-2.8-18.6
		c0-7.8,1.1-14.3,3.4-19.4c2.3-5.1,5.6-8.9,10.1-11.5c4.5-2.5,10.1-3.8,16.9-3.8c10,0,17.5,2.4,22.5,7.2c5,4.8,7.5,12.4,7.5,22.8
		l-1,10.2h-39.7c0.1,4.1,1,7.2,2.6,9.2c1.7,2,4.6,3,8.7,3c2.7,0,5.6-0.1,9-0.2c3.3-0.1,6.6-0.3,9.9-0.5c3.3-0.2,6.1-0.3,8.4-0.5
		l0.4,13.4c-2.2,0.4-5,0.9-8.4,1.4c-3.4,0.5-6.8,0.9-10.4,1.2C427.4,1420.7,424,1420.9,420.7,1420.9z M410.8,1381.3h21.1
		c0-5.2-0.8-8.7-2.4-10.8c-1.6-2-4.3-3-7.9-3c-2.4,0-4.4,0.5-6,1.4c-1.6,0.9-2.8,2.4-3.5,4.4C411.3,1375.3,410.9,1378,410.8,1381.3z
		"/>
	<path class="st12" d="M461.6,1419.3v-64.8h19.7v7.3c1.4-1.1,3.1-2.3,5.2-3.5c2.1-1.2,4.3-2.4,6.6-3.4s4.6-1.7,6.7-1.9v18.8
		c-2.1,0.3-4.3,0.8-6.6,1.5c-2.3,0.7-4.5,1.5-6.6,2.4c-2.1,0.9-3.8,1.7-5.3,2.5v41.1H461.6z"/>
	<path class="st12" d="M530.9,1420.9c-4.8,0-8.7-0.7-11.7-2c-3-1.3-5.2-3.7-6.5-7.1c-1.3-3.4-2-8.2-2-14.4v-26.7h-7v-16.2h7v-16.1
		h19.7v16.1h15.2v16.2h-15.2v21.8c0,2.9,0.1,5.2,0.5,6.8c0.3,1.6,0.9,2.8,1.9,3.5c0.9,0.7,2.4,1,4.3,1c0.5,0,1.3,0,2.4-0.1
		c1.1-0.1,2.3-0.1,3.4-0.2c1.2,0,2-0.1,2.6-0.2l0.5,15.6c-1.4,0.3-3,0.5-4.8,0.8c-1.8,0.3-3.7,0.6-5.5,0.8
		C533.8,1420.8,532.2,1420.9,530.9,1420.9z"/>
	<path class="st12" d="M558.3,1419.3v-88.9h32.9c5.8,0,10.7,0.8,14.7,2.3c4,1.5,7,4,9,7.3c2.1,3.3,3.1,7.7,3.1,13.1
		c0,3.7-0.5,6.9-1.4,9.5c-0.9,2.6-2.1,4.8-3.7,6.5c-1.6,1.7-3.6,3.2-6,4.5c2.6,0.9,4.9,2.1,7,3.7c2.1,1.6,3.7,3.8,5,6.5
		c1.2,2.7,1.9,6.2,1.9,10.5c0,4.6-0.7,8.6-2,11.8s-3.2,5.8-5.7,7.7c-2.5,1.9-5.4,3.3-8.8,4.2c-3.4,0.9-7.2,1.3-11.5,1.3H558.3z
		 M569.7,1369.5h21.9c3.5,0,6.4-0.6,8.6-1.7c2.2-1.1,3.9-2.8,4.9-5.1c1-2.3,1.5-5.1,1.5-8.6c0-4.9-1.3-8.5-3.9-10.8
		c-2.6-2.3-6.6-3.4-12.1-3.4h-21V1369.5z M569.7,1409.8h22.4c3.5,0,6.6-0.5,9.2-1.4c2.6-0.9,4.6-2.6,5.9-4.8
		c1.4-2.3,2.1-5.5,2.1-9.7c0-3.2-0.6-5.8-1.7-7.8c-1.2-2-2.7-3.5-4.5-4.5c-1.8-1-3.8-1.7-5.7-2c-2-0.3-3.8-0.5-5.5-0.5h-22V1409.8z"
		/>
	<path class="st12" d="M636.2,1419.3v-64.4H647v8.5c1.6-1.1,3.7-2.3,6.1-3.7c2.4-1.3,5.1-2.6,8.1-3.8c2.9-1.2,5.8-2,8.8-2.4v11
		c-2.8,0.6-5.7,1.4-8.6,2.3c-2.9,0.9-5.6,2-8.1,3.1c-2.5,1.1-4.6,2.1-6.2,3v46.5H636.2z"/>
	<path class="st12" d="M681,1341.2v-12h10.8v12H681z M681,1419.3v-64.4h10.8v64.4H681z"/>
	<path class="st12" d="M730.4,1420.6c-2.7,0-5.2-0.3-7.5-0.8c-2.3-0.6-4.4-1.5-6.4-3c-1.9-1.4-3.6-3.4-5.1-5.9
		c-1.5-2.5-2.6-5.6-3.4-9.5c-0.8-3.8-1.2-8.4-1.2-13.9c0-7.6,0.9-14,2.7-19s4.7-8.8,8.7-11.3c4-2.5,9.3-3.7,15.8-3.7
		c1.5,0,3.3,0.1,5.2,0.2c1.9,0.1,3.8,0.3,5.7,0.6c1.8,0.3,3.3,0.5,4.4,0.8v-28.1h11v92.3h-10.8v-4.1c-1.4,0.7-3.1,1.5-5.3,2.3
		c-2.1,0.9-4.4,1.6-6.8,2.2C735.1,1420.3,732.7,1420.6,730.4,1420.6z M732.1,1410.8c2.1,0,4.3-0.2,6.5-0.7c2.2-0.5,4.2-1.1,6.1-1.7
		c1.9-0.7,3.5-1.3,4.8-1.9v-42c-1-0.2-2.4-0.4-4.1-0.6c-1.7-0.2-3.5-0.4-5.3-0.5c-1.8-0.1-3.5-0.2-5.1-0.2c-4.2,0-7.5,0.9-9.9,2.7
		c-2.4,1.8-4.1,4.5-5.2,8.2c-1,3.7-1.5,8.2-1.5,13.6c0,4.9,0.4,8.9,1.1,11.9c0.7,3.1,1.7,5.4,3,7c1.3,1.6,2.8,2.8,4.4,3.4
		C728.5,1410.5,730.3,1410.8,732.1,1410.8z"/>
	<path class="st12" d="M803.7,1449.5c-6.7,0-12.1-0.6-16.2-1.7c-4.1-1.1-7.2-3.1-9.1-5.9s-2.9-6.7-2.9-11.6c0-2.5,0.4-4.6,1.2-6.4
		c0.8-1.8,1.9-3.4,3.4-4.9c1.5-1.5,3.3-3.1,5.5-4.7c-1.1-0.9-2-2.1-2.6-3.7c-0.6-1.6-1-3.4-1-5.3c0-0.6,0.2-1.5,0.7-2.7
		c0.5-1.2,1.1-2.5,1.8-3.8c0.7-1.3,1.4-2.6,2-3.7c-1.8-0.9-3.5-2-5-3.5c-1.5-1.5-2.7-3.5-3.7-6.1c-0.9-2.6-1.4-5.8-1.4-9.8
		c0-5.3,1-9.6,3-12.8c2-3.2,4.9-5.6,8.6-7c3.7-1.5,8-2.2,12.9-2.2c2.3,0,4.8,0.2,7.3,0.5c2.6,0.3,4.6,0.7,6.1,1l19.5-0.4v8.9
		l-11.9-0.3c1.2,1.2,2.2,2.8,3,4.7c0.8,1.9,1.2,4.4,1.2,7.5c0,5.7-0.9,10.1-2.8,13.3c-1.9,3.2-4.7,5.4-8.4,6.7s-8.4,1.9-14.1,1.9
		c-0.6,0-1.6-0.1-3-0.2s-2.5-0.2-3.2-0.3c-0.4,1.1-0.9,2.4-1.4,3.9c-0.5,1.5-0.8,2.5-0.8,3c0,1.3,0.1,2.3,0.5,3c0.3,0.7,1,1.2,2,1.7
		c1,0.4,2.6,0.7,4.6,0.8c2.1,0.1,4.9,0.2,8.5,0.2c6.1,0,11,0.5,14.7,1.5c3.7,1,6.3,2.9,7.9,5.6c1.6,2.7,2.4,6.6,2.4,11.8
		c0,7.4-2.6,12.7-7.7,16C820.1,1447.9,812.9,1449.5,803.7,1449.5z M803.7,1440.5c6.3,0,10.9-0.9,13.8-2.6c2.9-1.8,4.4-4.6,4.4-8.6
		c0-3-0.5-5.2-1.5-6.6c-1-1.4-2.6-2.4-4.8-2.8c-2.2-0.5-5.2-0.7-9-0.7c-0.9,0-2,0-3.3-0.1c-1.3,0-2.7-0.1-4.1-0.1
		c-1.4,0-2.7-0.1-3.9-0.2c-1.2-0.1-2-0.1-2.4-0.1c-1.6,1.2-3,2.3-4,3.4c-1,1-1.7,2.1-2.1,3.2c-0.4,1.1-0.6,2.5-0.6,4.1
		c0,2.7,0.5,4.8,1.5,6.4c1,1.6,2.8,2.8,5.3,3.6C795.6,1440.1,799.2,1440.5,803.7,1440.5z M800.9,1388.9c5.2,0,8.8-1,11-3
		c2.1-2,3.2-5.4,3.2-10.2c0-4.8-1.1-8.2-3.2-10.3c-2.1-2.1-5.8-3.1-11-3.1c-4.8,0-8.3,1-10.4,3.1c-2.1,2.1-3.2,5.5-3.2,10.3
		c0,4.8,1.1,8.2,3.2,10.2C792.6,1387.9,796.1,1388.9,800.9,1388.9z"/>
	<path class="st12" d="M868.3,1420.6c-6.5,0-11.7-1.2-15.5-3.7c-3.8-2.5-6.5-6.2-8.2-11.1c-1.7-4.9-2.5-11-2.5-18.3
		c0-8.1,1.1-14.6,3.4-19.6c2.2-5,5.4-8.6,9.5-10.9c4.1-2.3,9-3.4,14.6-3.4c8.8,0,15.4,2.4,19.8,7.2c4.4,4.8,6.6,12.4,6.6,22.9
		l-0.5,8h-42.1c0.1,6.4,1.3,11.2,3.6,14.5c2.3,3.3,6.5,5,12.6,5c2.4,0,5.1-0.1,8-0.2c2.9-0.1,5.8-0.3,8.7-0.5
		c2.9-0.2,5.3-0.3,7.3-0.5l0.3,8.5c-2.1,0.3-4.6,0.7-7.6,1c-3,0.3-6.1,0.6-9.2,0.8C873.9,1420.5,871,1420.6,868.3,1420.6z
		 M853.3,1383h31.6c0-7.6-1.2-12.9-3.6-15.9c-2.4-3-6.3-4.6-11.7-4.6c-3.5,0-6.5,0.7-8.8,2.1c-2.4,1.4-4.2,3.6-5.5,6.6
		C854,1374.1,853.3,1378.1,853.3,1383z"/>
</g>
</svg>
