<?xml version="1.0" encoding="utf-8"?>
<!-- Generator: Adobe Illustrator 23.0.5, SVG Export Plug-In . SVG Version: 6.00 Build 0)  -->
<svg version="1.1" id="Layer_1" xmlns="http://www.w3.org/2000/svg" xmlns:xlink="http://www.w3.org/1999/xlink" x="0px" y="0px"
	 viewBox="0 0 24 24" style="enable-background:new 0 0 24 24;" xml:space="preserve">
<style type="text/css">
	.st0{fill:#0F172A;}
</style>
<path class="st0" d="M6.4,19h11.2l-2.1-2.1c-0.5,0.4-1,0.6-1.6,0.8C13.3,17.9,12.7,18,12,18c-0.6,0-1.3-0.1-1.9-0.3
	c-0.6-0.2-1.1-0.5-1.6-0.8L6.4,19z M5,17.6l2.1-2.1c-0.3-0.5-0.6-1-0.8-1.6C6.1,13.3,6,12.6,6,12c0-0.7,0.1-1.3,0.3-1.9
	C6.5,9.5,6.8,9,7.1,8.5L5,6.4V17.6z M8.6,14l2.1-2l-2.1-2c-0.2,0.3-0.3,0.6-0.4,1C8,11.3,8,11.6,8,12c0,0.4,0,0.7,0.1,1.1
	C8.2,13.4,8.4,13.7,8.6,14z M12,16c0.4,0,0.7,0,1.1-0.1c0.3-0.1,0.7-0.2,1-0.4l-2-2.1l-2.1,2.1c0.3,0.2,0.6,0.3,1,0.4
	C11.3,16,11.6,16,12,16z M12,10.6l2-2c-0.3-0.2-0.6-0.3-1-0.4S12.4,8,12,8c-0.4,0-0.7,0-1.1,0.1S10.3,8.4,10,8.6L12,10.6z M15.4,14
	c0.2-0.3,0.3-0.6,0.4-0.9S16,12.4,16,12c0-0.4,0-0.7-0.1-1.1s-0.2-0.7-0.4-1l-2,2L15.4,14z M19,17.6V6.4l-2.1,2.1
	c0.4,0.5,0.6,1,0.8,1.6c0.2,0.6,0.3,1.2,0.3,1.9c0,0.6-0.1,1.3-0.3,1.9c-0.2,0.6-0.5,1.1-0.8,1.6L19,17.6z M15.5,7.1L17.6,5H6.4
	l2.1,2.1c0.5-0.4,1-0.6,1.6-0.8C10.7,6.1,11.4,6,12,6c0.7,0,1.3,0.1,1.9,0.3S15,6.8,15.5,7.1z M5,21c-0.5,0-1-0.2-1.4-0.6
	S3,19.5,3,19V5c0-0.5,0.2-1,0.6-1.4S4.5,3,5,3h14c0.6,0,1,0.2,1.4,0.6S21,4.4,21,5v14c0,0.5-0.2,1-0.6,1.4S19.6,21,19,21H5z"/>
</svg>
